<?xml version="1.0" standalone="no"?>
<!DOCTYPE svg PUBLIC "-//W3C//DTD SVG 20010904//EN"
 "http://www.w3.org/TR/2001/REC-SVG-20010904/DTD/svg10.dtd">
<svg version="1.0" xmlns="http://www.w3.org/2000/svg"
 width="1024.000000pt" height="1024.000000pt" viewBox="0 0 1024.000000 1024.000000"
 preserveAspectRatio="xMidYMid meet">
<metadata>
Created by potrace 1.14, written by Peter Selinger 2001-2017
</metadata>
<g transform="translate(0.000000,1024.000000) scale(0.100000,-0.100000)"
fill="#000000" stroke="none">
<path d="M3455 7494 c-88 -7 -185 -17 -215 -23 -117 -19 -186 -33 -210 -41
-14 -4 -52 -16 -85 -25 -33 -9 -69 -20 -80 -25 -11 -4 -36 -14 -55 -20 -51
-18 -164 -74 -168 -82 -2 -5 -10 -8 -19 -8 -8 0 -29 -11 -47 -25 -18 -14 -38
-25 -44 -25 -6 0 -12 -3 -14 -8 -1 -4 -23 -23 -48 -42 -151 -117 -280 -289
-353 -470 -10 -25 -25 -60 -33 -78 -8 -18 -14 -43 -14 -56 0 -12 -3 -26 -7
-30 -8 -8 -25 -80 -45 -191 -16 -91 -16 -571 0 -680 6 -44 19 -107 28 -140 8
-33 19 -74 23 -90 4 -17 12 -39 18 -50 6 -11 16 -33 23 -50 22 -51 45 -100 50
-105 3 -3 14 -22 25 -42 11 -21 23 -38 27 -38 5 0 8 -6 8 -12 0 -7 16 -31 35
-53 19 -22 35 -43 35 -47 0 -12 136 -145 168 -164 18 -10 32 -22 32 -25 0 -4
27 -24 60 -44 66 -40 66 -39 33 -115 -8 -19 -21 -48 -28 -65 -7 -16 -17 -41
-23 -55 -5 -14 -17 -43 -27 -65 -9 -22 -20 -49 -25 -60 -4 -11 -15 -38 -25
-60 -9 -22 -20 -49 -25 -60 -4 -11 -15 -36 -24 -57 -9 -20 -16 -41 -16 -47 0
-6 -4 -11 -10 -11 -5 0 -10 -8 -10 -18 0 -17 -17 -60 -41 -104 -5 -10 -9 -25
-9 -33 0 -8 -4 -15 -8 -15 -4 0 -16 -26 -27 -57 -11 -32 -22 -60 -25 -63 -3
-3 -14 -27 -24 -55 -10 -27 -27 -70 -38 -95 -11 -25 -27 -61 -35 -80 -8 -19
-20 -48 -27 -65 -7 -16 -19 -43 -26 -60 -6 -16 -18 -43 -26 -58 -8 -16 -14
-37 -14 -48 0 -10 -4 -19 -10 -19 -5 0 -10 -6 -10 -14 0 -7 -7 -27 -15 -42 -8
-16 -15 -37 -15 -46 0 -10 -4 -18 -8 -18 -5 0 -17 -27 -28 -60 -10 -33 -22
-60 -26 -60 -5 0 -8 -7 -8 -15 0 -14 -6 -29 -50 -130 -13 -27 -34 -79 -47
-115 -14 -36 -31 -81 -40 -100 -8 -19 -21 -50 -29 -68 -8 -18 -14 -35 -14 -37
0 -3 195 -5 434 -5 l435 0 15 22 c9 12 16 33 16 45 0 13 5 23 10 23 6 0 10 10
10 23 0 12 7 31 15 41 8 11 15 30 15 43 0 13 4 23 9 23 5 0 11 10 14 23 7 30
31 91 38 97 3 3 8 16 11 30 7 32 31 93 39 100 3 3 9 18 13 34 4 15 15 47 25
70 10 22 24 57 31 76 14 38 32 81 55 134 8 19 15 40 15 48 0 8 4 18 9 23 4 6
16 33 26 60 20 59 27 77 49 127 9 20 16 43 16 52 0 9 5 16 10 16 6 0 10 11 10
25 0 14 5 25 10 25 6 0 10 7 10 16 0 9 6 30 14 47 7 18 19 48 26 67 7 19 18
49 25 65 7 17 24 59 38 95 69 179 80 206 88 225 5 11 17 43 28 70 18 47 21 50
52 48 19 -1 99 -6 179 -12 80 -5 286 -10 458 -10 l312 -1 0 -885 0 -885 408 2
407 3 0 1763 c0 969 3 1762 7 1762 3 0 9 -13 13 -30 4 -16 11 -30 16 -30 5 0
9 -11 9 -24 0 -14 4 -27 9 -31 5 -3 12 -19 16 -35 4 -17 11 -30 16 -30 5 0 9
-7 9 -14 0 -8 11 -36 25 -62 14 -26 25 -53 25 -60 0 -7 3 -14 8 -16 10 -4 42
-67 42 -84 0 -8 4 -14 9 -14 5 0 13 -10 17 -22 4 -13 9 -25 13 -28 3 -3 18
-27 32 -55 54 -102 64 -120 70 -125 3 -3 13 -21 22 -40 19 -37 39 -72 47 -80
3 -3 17 -27 31 -55 42 -81 64 -120 69 -125 3 -3 14 -23 25 -45 11 -22 22 -42
25 -45 8 -8 28 -43 47 -80 9 -19 33 -62 53 -95 19 -33 42 -73 50 -90 8 -16 21
-36 28 -43 6 -7 12 -19 12 -27 0 -7 3 -15 8 -17 6 -3 33 -49 81 -143 9 -16 18
-32 21 -35 3 -3 14 -23 25 -45 11 -22 23 -41 28 -43 4 -2 7 -8 7 -13 0 -6 8
-19 18 -30 18 -19 31 -19 332 -17 l314 3 30 60 c17 33 34 62 39 63 4 2 7 10 7
17 0 8 6 20 13 27 6 8 25 40 42 73 16 33 35 66 42 73 7 7 13 20 13 28 0 8 5
14 10 14 6 0 10 9 10 20 0 11 5 20 10 20 6 0 10 6 10 14 0 8 6 21 13 28 6 8
26 40 42 73 17 33 36 66 43 73 6 7 12 20 12 28 0 8 3 14 8 14 4 0 15 17 25 38
17 37 37 72 47 82 3 3 17 29 32 58 36 69 62 116 68 122 3 3 14 23 25 45 11 22
23 42 28 43 4 2 7 7 7 12 0 4 29 58 65 120 36 62 65 116 65 120 0 5 3 10 8 12
9 4 131 254 177 363 9 22 20 49 25 60 4 11 15 36 24 57 9 20 16 41 16 47 0 6
5 11 11 11 7 0 9 -11 5 -32 -4 -18 -14 -100 -23 -183 -13 -128 -16 -393 -20
-1769 -3 -1317 -1 -1621 9 -1627 7 -5 187 -9 401 -9 l387 0 0 2390 0 2390
-456 -2 -456 -3 -22 -40 c-11 -22 -23 -42 -26 -45 -3 -3 -13 -21 -24 -40 -10
-19 -27 -50 -37 -68 -70 -122 -99 -174 -99 -178 0 -2 -11 -21 -24 -42 -12 -20
-38 -64 -55 -97 -18 -33 -50 -91 -72 -130 -22 -38 -49 -90 -62 -115 -12 -25
-24 -47 -27 -50 -3 -3 -10 -14 -16 -25 -6 -11 -22 -40 -36 -65 -54 -97 -92
-166 -102 -185 -6 -11 -13 -22 -16 -25 -11 -11 -40 -73 -40 -86 0 -8 -3 -14
-8 -14 -4 0 -16 -17 -27 -37 -11 -21 -22 -40 -25 -43 -3 -3 -15 -25 -27 -50
-13 -25 -40 -76 -62 -115 -22 -38 -54 -99 -73 -135 -18 -36 -35 -67 -38 -70
-3 -3 -25 -47 -50 -97 -25 -51 -48 -93 -52 -93 -5 0 -8 -5 -8 -12 0 -20 -100
-218 -110 -218 -6 0 -10 5 -10 11 0 5 -13 37 -30 71 -16 33 -30 66 -30 74 0 8
-3 14 -7 14 -5 0 -17 21 -27 48 -11 26 -22 49 -25 52 -3 3 -22 37 -42 75 -58
115 -104 200 -109 205 -3 3 -17 29 -32 58 -71 134 -84 157 -95 170 -7 7 -13
20 -13 28 0 8 -4 14 -9 14 -5 0 -11 8 -14 18 -3 9 -20 42 -38 72 -47 82 -74
131 -95 170 -11 19 -21 37 -24 40 -3 3 -14 23 -25 45 -11 22 -22 42 -25 45 -3
3 -14 23 -25 45 -11 22 -22 42 -25 45 -3 3 -14 23 -25 45 -11 22 -22 42 -25
45 -5 5 -27 45 -69 125 -14 28 -28 52 -31 55 -3 3 -14 23 -25 45 -11 22 -22
42 -25 45 -6 6 -33 54 -68 122 -15 29 -29 55 -32 58 -3 3 -10 14 -16 25 -6 11
-26 47 -44 80 -19 33 -43 77 -54 98 l-20 37 -825 -1 c-589 -1 -872 -6 -986
-15z m873 -1491 l-3 -748 -280 -3 c-442 -4 -684 27 -834 105 -24 13 -50 23
-57 23 -8 0 -14 4 -14 9 0 5 -9 13 -21 16 -56 18 -167 134 -210 220 -42 82
-63 162 -80 299 -13 108 -10 137 38 369 3 15 9 27 14 27 5 0 9 7 9 15 0 20 32
85 42 85 4 0 8 6 8 13 0 21 143 150 196 177 27 14 51 28 52 33 2 4 15 7 28 7
13 0 24 3 24 8 0 4 30 15 68 25 37 10 81 22 97 27 17 4 77 13 135 19 58 6 119
13 135 15 17 1 171 4 343 5 l312 1 -2 -747z"/>
</g>
</svg>
